<svg viewBox="0 0 512 512" xmlns="http://www.w3.org/2000/svg">


  <defs>
    <linearGradient id="wormGrad" x1="0%" y1="0%" x2="100%" y2="100%">
      <stop offset="0%" style="stop-color:#f97316"/>
      <stop offset="100%" style="stop-color:#ef4444"/>
    </linearGradient>
    <filter id="shadow" x="-5%" y="-5%" width="110%" height="110%">
      <feDropShadow dx="0" dy="2" stdDeviation="4" flood-color="#00000015"/>
    </filter>
  </defs>

  <g transform="translate(-20, -50)" filter="url(#shadow)">
    <path d="M100 300 Q130 270 160 285 Q190 300 220 270 Q250 240 280 260 Q310 280 340 250 Q370 220 400 240 Q420 255 420 255" fill="none" stroke="#f9731618" stroke-width="36" stroke-linecap="round"/>
    <ellipse cx="100" cy="300" rx="24" ry="22" fill="url(#wormGrad)" opacity="0.5"/>
    <ellipse cx="152" cy="278" rx="26" ry="24" fill="url(#wormGrad)" opacity="0.55"/>
    <ellipse cx="208" cy="268" rx="28" ry="26" fill="url(#wormGrad)" opacity="0.6"/>
    <ellipse cx="266" cy="262" rx="30" ry="28" fill="url(#wormGrad)" opacity="0.65"/>
    <ellipse cx="326" cy="250" rx="32" ry="30" fill="url(#wormGrad)" opacity="0.7"/>
    <ellipse cx="386" cy="238" rx="34" ry="32" fill="url(#wormGrad)" opacity="0.8"/>
    <ellipse cx="420" cy="238" rx="48" ry="46" fill="url(#wormGrad)"/>
    <ellipse cx="432" cy="228" rx="11" ry="12" fill="white"/>
    <ellipse cx="454" cy="226" rx="10" ry="11" fill="white"/>
    <circle cx="435" cy="227" r="6" fill="#1a1a1a"/>
    <circle cx="457" cy="225" r="5.5" fill="#1a1a1a"/>
    <circle cx="437" cy="225" r="2.2" fill="white"/>
    <circle cx="459" cy="223" r="2" fill="white"/>
    <path d="M432 248 Q443 256 454 246" fill="none" stroke="white" stroke-width="3" stroke-linecap="round"/>
    <circle cx="425" cy="240" r="7" fill="#ff6b6b" opacity="0.25"/>
    <circle cx="461" cy="238" r="6.5" fill="#ff6b6b" opacity="0.25"/>
  </g>
</svg>
