<svg viewBox="22 62 137 82" xmlns="http://www.w3.org/2000/svg">
  <defs>
    <linearGradient id="favGrad" x1="0%" y1="0%" x2="100%" y2="100%">
      <stop offset="0%" style="stop-color:#f97316"/>
      <stop offset="100%" style="stop-color:#ef4444"/>
    </linearGradient>
  </defs>
  <path d="M40 120 Q70 80 100 100 Q130 120 160 80" fill="none" stroke="#f9731626" stroke-width="20" stroke-linecap="round"/>
  <path d="M40 120 Q70 80 100 100 Q130 120 160 80" fill="none" stroke="url(#favGrad)" stroke-width="4" stroke-linecap="round"/>
  <circle cx="44" cy="118" r="14" fill="url(#favGrad)"/>
  <circle cx="38" cy="115" r="5" fill="white"/>
  <circle cx="39.5" cy="114" r="2.5" fill="#fefefe"/>
  <circle cx="40" cy="113" r="1.4" fill="#1a1a1a"/>
  <path d="M36 120 Q44 127 52 120" fill="none" stroke="white" stroke-width="2.5" stroke-linecap="round"/>
  <circle cx="58" cy="106" r="10" fill="url(#favGrad)" opacity="0.7"/>
  <circle cx="74" cy="96" r="11" fill="url(#favGrad)" opacity="0.75"/>
  <circle cx="92" cy="100" r="12" fill="url(#favGrad)" opacity="0.8"/>
  <circle cx="110" cy="108" r="11" fill="url(#favGrad)" opacity="0.75"/>
  <circle cx="126" cy="100" r="10" fill="url(#favGrad)" opacity="0.7"/>
  <circle cx="140" cy="88" r="9" fill="url(#favGrad)" opacity="0.6"/>
</svg>
