<svg xmlns="http://www.w3.org/2000/svg" width="32" height="32" viewBox="0 0 24 24">
  <defs>
    <linearGradient id="g" x1="0%" y1="0%" x2="100%" y2="100%">
      <stop offset="0%" style="stop-color:#52B788"/>
      <stop offset="100%" style="stop-color:#2D6A4F"/>
    </linearGradient>
  </defs>
  <path d="M12 2c-2 0-4 1-5 3l-1 2c-1 2-1 4 0 6l3 5c1 2 3 3 5 3s4-1 5-3l3-5c1-2 1-4 0-6l-1-2c-1-2-3-3-5-3h-4z" stroke="url(#g)" stroke-width="1.8" stroke-linecap="round" fill="none"/>
  <path d="M12 4C9 4 6 6 6 10c0 3 2 5 4 7 1-1 2-1 2-1s1 0 2 1c2-2 4-4 4-7 0-4-3-6-6-6z" fill="url(#g)" opacity="0.35"/>
  <circle cx="10" cy="9" r="1.2" fill="#2D6A4F"/>
  <circle cx="14" cy="9" r="1.2" fill="#2D6A4F"/>
  <path d="M10 12c0 0 1 1.5 2 1.5s2-1.5 2-1.5" stroke="#2D6A4F" stroke-width="1.2" stroke-linecap="round" fill="none"/>
</svg>
