<svg viewBox="0 0 170 100" xmlns="http://www.w3.org/2000/svg">
  <defs>
    <linearGradient id="g" x1="0%" y1="0%" x2="100%" y2="100%">
      <stop offset="0%" style="stop-color:#f97316"/>
      <stop offset="100%" style="stop-color:#ef4444"/>
    </linearGradient>
    <linearGradient id="g2" x1="0%" y1="0%" x2="100%" y2="0%">
      <stop offset="0%" style="stop-color:#f97316;stop-opacity:0.15"/>
      <stop offset="100%" style="stop-color:#ef4444;stop-opacity:0.15"/>
    </linearGradient>
  </defs>
  <rect width="170" height="100" rx="22" fill="#fefefe"/>
  <path d="M40 120 Q70 80 100 100 Q130 120 160 80" fill="none" stroke="url(#g2)" stroke-width="20" stroke-linecap="round"/>
  <path d="M40 120 Q70 80 100 100 Q130 120 160 80" fill="none" stroke="url(#g)" stroke-width="3" stroke-linecap="round"/>
  <g>
    <circle cx="50" cy="116" r="10" fill="url(#g)" opacity="0.5"/>
    <circle cx="65" cy="100" r="11" fill="url(#g)" opacity="0.6"/>
    <circle cx="82" cy="92" r="12" fill="url(#g)" opacity="0.7"/>
    <circle cx="100" cy="96" r="13" fill="url(#g)" opacity="0.85"/>
    <circle cx="118" cy="104" r="12" fill="url(#g)" opacity="0.7"/>
    <circle cx="134" cy="96" r="11" fill="url(#g)" opacity="0.6"/>
    <circle cx="148" cy="84" r="10" fill="url(#g)" opacity="0.5"/>
    <circle cx="44" cy="118" r="10" fill="url(#g)"/>
    <circle cx="40" cy="115" r="3.5" fill="white"/>
    <circle cx="41.5" cy="114" r="1.8" fill="#fefefe"/>
    <circle cx="42" cy="113.5" r="1" fill="#1a1a1a"/>
    <path d="M38 120 Q44 125 50 120" fill="none" stroke="white" stroke-width="1.8" stroke-linecap="round"/>
  </g>
</svg>
